# xmcd
#
# Track frame offsets: 
#        150
#        22140
#        38990
#        59592
#        81553
#        105823
#        124952
#        145644
#        164046
#        184600
#        205452
#
# Disc length: 3026 seconds
#
# Revision: 0
# Processed by: cddbd v1.5.2PL0 Copyright (c) Steve Scherf et al.
# Submitted via: ExactAudioCopy v1.0b3
#
DISCID=a10bd00b
DTITLE=Ngoc Son - Doi Nga Chia Ly
DYEAR=2008
DGENRE=
TTITLE0=Doi nga chia ly
TTITLE1=Lanh tron dem mua
TTITLE2=Nguoi ngoai pho
TTITLE3=Nho nhau hoai
TTITLE4=Mua dong cua anh
TTITLE5=Ky niem nao buon
TTITLE6=Gia tu
TTITLE7=Xom dem
TTITLE8=Dem tam su
TTITLE9=Tinh dai kho
TTITLE10=Dem cuoi
EXTD=
EXTT0=
EXTT1=
EXTT2=
EXTT3=
EXTT4=
EXTT5=
EXTT6=
EXTT7=
EXTT8=
EXTT9=
EXTT10=
PLAYORDER=
